<?xml version="1.0" encoding="utf-8"?>
<!-- Generator: Adobe Illustrator 24.2.0, SVG Export Plug-In . SVG Version: 6.00 Build 0)  -->
<svg version="1.1" id="Layer_1" xmlns="http://www.w3.org/2000/svg" xmlns:xlink="http://www.w3.org/1999/xlink" x="0px" y="0px"
	 viewBox="0 0 532.64 320.97" style="enable-background:new 0 0 532.64 320.97;" xml:space="preserve">
<g>
	<polygon points="230.94,102.36 222.81,102.36 222.81,101.31 225.63,101.31 225.63,85.12 219.98,85.12 219.98,87.38 218.62,87.38 
		218.62,82.92 219.98,82.92 219.98,83.71 233.77,83.71 233.77,82.92 235.12,82.92 235.12,87.38 233.77,87.38 233.77,85.12 
		228.12,85.12 228.12,101.31 230.94,101.31 	"/>
	<polygon points="256.63,102.36 249.9,102.36 249.9,101.31 252.02,101.31 252.02,93.54 241.43,93.54 241.43,101.31 243.54,101.31 
		243.54,102.36 236.82,102.36 236.82,101.31 238.94,101.31 238.94,84.76 236.82,84.76 236.82,83.71 243.54,83.71 243.54,84.76 
		241.43,84.76 241.43,92.27 252.02,92.27 252.02,84.76 249.9,84.76 249.9,83.71 256.63,83.71 256.63,84.76 254.48,84.76 
		254.48,101.31 256.63,101.31 	"/>
	<polygon points="271.85,102.36 258.99,102.36 258.99,101.31 261.11,101.31 261.11,84.76 258.99,84.76 258.99,83.71 270.27,83.71 
		270.27,82.92 271.57,82.92 271.57,87.41 270.29,87.41 270.29,85.01 263.6,85.01 263.6,92.24 268.94,92.24 268.94,90.12 
		270.24,90.1 270.24,95.66 268.94,95.69 268.94,93.52 263.6,93.52 263.6,101.09 270.55,101.09 270.55,98.6 271.85,98.6 	"/>
	<path d="M299.76,84.76h-2.12v10.76c0,3.02-1.07,4.97-3.42,6.24c-1.19,0.62-2.55,0.96-3.93,0.96c-4.1,0-7.12-2.71-7.12-6.41V84.76
		h-2.12v-1.05h6.73v1.05h-2.12v10.68c0,3.42,2.01,5.65,5.14,5.65c3.22,0,5.4-2.29,5.4-5.68V84.76h-2.12v-1.05h5.68V84.76z"/>
	<polygon points="317.19,102.67 316.31,102.67 305.46,87.75 305.46,101.31 307.61,101.31 307.61,102.36 301.9,102.36 301.9,101.31 
		304.05,101.31 304.05,85.83 303.29,84.76 301.33,84.76 301.33,83.71 305.43,83.71 315.77,97.89 315.77,84.76 313.62,84.76 
		313.62,83.71 319.31,83.71 319.31,84.76 317.19,84.76 	"/>
	<polygon points="328.09,102.36 321.36,102.36 321.36,101.31 323.48,101.31 323.48,84.76 321.36,84.76 321.36,83.71 328.09,83.71 
		328.09,84.76 325.97,84.76 325.97,101.31 328.09,101.31 	"/>
	<polygon points="339.5,102.84 338.54,102.84 331.42,84.76 329.75,84.76 329.75,83.71 336.76,83.71 336.76,84.76 334.11,84.76 
		339.59,98.63 345.01,84.76 343.15,84.76 343.15,83.71 347.98,83.71 347.98,84.76 346.56,84.76 	"/>
	<polygon points="362.53,102.36 349.67,102.36 349.67,101.31 351.79,101.31 351.79,84.76 349.67,84.76 349.67,83.71 360.95,83.71 
		360.95,82.92 362.25,82.92 362.25,87.41 360.97,87.41 360.97,85.01 354.28,85.01 354.28,92.24 359.62,92.24 359.62,90.12 
		360.92,90.1 360.92,95.66 359.62,95.69 359.62,93.52 354.28,93.52 354.28,101.09 361.23,101.09 361.23,98.6 362.53,98.6 	"/>
	<path d="M369.84,92.7h2.71c2.15,0,3.64-1.58,3.64-3.9c0-2.43-1.33-3.79-3.7-3.79h-2.66V92.7z M381.57,102.36h-2.4
		c-1.67,0-1.98-0.17-2.91-1.67l-4.21-6.7h-2.2v7.32h2.12v1.04h-6.73v-1.04h2.12V84.76h-2.12v-1.04h7.86c2.74,0,4.29,0.76,5.14,2.51
		c0.37,0.76,0.57,1.61,0.57,2.51c0,2.74-1.53,4.49-4.24,4.89l4.07,6.27c0.68,1.04,1.13,1.38,1.84,1.38h1.1V102.36z"/>
	<path d="M385.18,102.61h-1.33v-5.09h1.33v2.23c1.72,1.16,2.49,1.44,3.73,1.44c2.26,0,3.79-1.19,3.79-2.97c0-1.61-1.1-2.8-4.15-4.38
		c-3.56-1.87-4.78-3.28-4.78-5.6c0-2.8,2.38-4.89,5.57-4.89c1.41,0,2.46,0.26,3.36,0.79v-1.02h1.3v4.83h-1.3v-2
		c-1.44-0.96-2.15-1.24-3.28-1.24c-1.92,0-3.16,1.16-3.16,2.91c0,1.44,0.82,2.26,4.35,4.3c3.53,2.03,4.55,3.28,4.55,5.59
		c0,2.94-2.43,5.2-5.62,5.2c-1.78,0-2.94-0.37-4.35-1.27V102.61z"/>
	<polygon points="404.47,102.36 397.75,102.36 397.75,101.31 399.87,101.31 399.87,84.76 397.75,84.76 397.75,83.71 404.47,83.71 
		404.47,84.76 402.36,84.76 402.36,101.31 404.47,101.31 	"/>
	<polygon points="418.63,102.36 410.49,102.36 410.49,101.31 413.31,101.31 413.31,85.12 407.66,85.12 407.66,87.38 406.31,87.38 
		406.31,82.92 407.66,82.92 407.66,83.71 421.45,83.71 421.45,82.92 422.81,82.92 422.81,87.38 421.45,87.38 421.45,85.12 
		415.8,85.12 415.8,101.31 418.63,101.31 	"/>
	<polygon points="436.48,102.36 429.75,102.36 429.75,101.31 431.87,101.31 431.87,93.77 426.02,84.76 424.38,84.76 424.38,83.71 
		431.36,83.71 431.36,84.76 428.79,84.76 433.65,92.16 438.14,84.76 435.57,84.76 435.57,83.71 441.22,83.71 441.22,84.76 
		439.75,84.76 434.33,93.6 434.33,101.31 436.48,101.31 	"/>
	<path d="M451.31,93.04c0,4.77,2.66,8.22,6.33,8.22c3.62,0,6.24-3.47,6.24-8.22c0-4.75-2.62-8.19-6.22-8.19
		C453.96,84.84,451.31,88.23,451.31,93.04 M448.51,93.06c0-5.31,4.13-9.69,9.13-9.69c4.92,0,9.04,4.41,9.04,9.66
		c0,5.26-4.13,9.69-9.04,9.69C452.66,102.73,448.51,98.32,448.51,93.06"/>
	<polygon points="479.7,82.92 479.7,83.71 468.42,83.71 468.42,84.76 470.54,84.76 470.54,101.31 468.42,101.31 468.42,102.36 
		475.15,102.36 475.15,101.31 473.03,101.31 473.03,93.52 478.37,93.52 478.37,95.69 479.67,95.66 479.67,90.1 478.37,90.12 
		478.37,92.24 473.03,92.24 473.03,85.01 479.72,85.01 479.72,87.41 481,87.41 481,82.92 	"/>
	<path d="M222.14,162.72h-3.5v-13.4h3.5v5.88c4.54,3.05,6.56,3.8,9.83,3.8c5.96,0,9.98-3.13,9.98-7.82c0-4.24-2.91-7.37-10.95-11.54
		c-9.38-4.91-12.58-8.64-12.58-14.78c0-7.37,6.25-12.88,14.67-12.88c3.73,0,6.48,0.67,8.86,2.08v-2.68h3.42v12.73h-3.42v-5.29
		c-3.8-2.53-5.66-3.28-8.64-3.28c-5.07,0-8.34,3.05-8.34,7.67c0,3.8,2.16,5.97,11.47,11.35c9.31,5.36,11.99,8.64,11.99,14.74
		c0,7.75-6.4,13.7-14.82,13.7c-4.69,0-7.74-0.97-11.47-3.35V162.72z"/>
	<polygon points="281.63,162.05 263.91,162.05 263.91,159.3 269.49,159.3 269.49,139.41 254.08,115.63 249.76,115.63 249.76,112.87 
		268.15,112.87 268.15,115.63 261.38,115.63 274.18,135.17 286.03,115.63 279.25,115.63 279.25,112.87 294.14,112.87 294.14,115.63 
		290.27,115.63 275.97,138.97 275.97,159.3 281.63,159.3 	"/>
	<path d="M310,158.33h8.94c10.2,0,17.95-9.01,17.87-20.85c0-11.5-7.89-20.81-17.72-20.81H310V158.33z M297.86,162.05v-2.75h5.58
		v-43.67h-5.58v-2.75h21.97c13.4,0,24.35,11.02,24.35,24.53c0,13.78-10.72,24.65-24.42,24.65H297.86z"/>
	<polygon points="387.13,162.87 384.82,162.87 356.23,123.52 356.23,159.3 361.89,159.3 361.89,162.05 346.85,162.05 346.85,159.3 
		352.51,159.3 352.51,118.46 350.5,115.62 345.36,115.62 345.36,112.87 356.15,112.87 383.41,150.29 383.41,115.62 377.75,115.62 
		377.75,112.87 392.72,112.87 392.72,115.62 387.13,115.62 	"/>
	<polygon points="431.65,162.05 397.77,162.05 397.77,159.3 403.36,159.3 403.36,115.63 397.77,115.63 397.77,112.87 427.48,112.87 
		427.48,110.79 430.91,110.79 430.91,122.62 427.56,122.62 427.56,116.3 409.91,116.3 409.91,135.39 423.99,135.39 423.99,129.8 
		427.41,129.72 427.41,144.4 423.99,144.48 423.99,138.74 409.91,138.74 409.91,158.7 428.23,158.7 428.23,152.15 431.65,152.15 	
		"/>
	<polygon points="466.12,112.87 466.12,115.63 472.9,115.63 461.06,135.17 448.25,115.63 455.03,115.63 455.03,112.87 
		436.64,112.87 436.64,115.63 440.96,115.63 456.37,139.42 456.37,159.3 450.78,159.3 450.78,162.05 468.51,162.05 468.51,159.3 
		462.85,159.3 462.85,138.97 477.14,115.63 481.02,115.63 481.02,112.87 	"/>
	<path d="M180.62,124.33c-0.01,34.08-25.91,65.03-59.31,65.06h-0.02c-33.41-0.04-59.31-30.98-59.32-65.06V65.66l0.87-0.26
		c0.06-0.01,30.1-9.32,58.45-9.33c28.36,0.01,58.45,9.33,58.45,9.33l0.87,0.26V124.33z M121.31,51.64
		c-34.91,0-69.67,9.29-69.67,9.29v46.45c0,41.86,29.98,85.39,69.65,92.91c41.14-8.04,69.69-51.04,69.69-92.91V60.93
		C190.98,60.93,161.86,51.64,121.31,51.64 M145.79,72.21c-0.31,0.05-0.75,0.19-1.24,0.51c-0.93,0.62-4.63,2.16-5.79,0.31
		c0,0,2.6-0.09,4.29-1.59c0,0,1.82-0.62,2.88,0.34C146.05,71.89,146.07,72.16,145.79,72.21 M164.61,94.44
		c0.38,0.2,0.39,0.44,0.11,0.69c-0.29,0.26-0.74,0.49-1.8,0.52c-0.47,0-0.46,0.3-0.42,0.5c0.07,0.49,0.62,0.87,1.38,0.96
		c0.41,0.11,0.48,0.38,0.12,0.77c-0.63,0.66-1.48,0.66-2.91,0.61c-1.35-0.05-2.43,1.59-1.63,2.27c0.53,0.46,1.62,1.48,0.68,4.24
		c-0.3,0.84-0.81-0.77-1.24-0.51c-1.12,0.67-2.1-0.17-2.6-0.77c-0.22-0.26-0.41-0.27-0.56,0c-0.45,0.78-1.63,2.15-4.01,0.87
		c-0.51-0.27-1.58,0.67-1.64,0.35c-0.39-1.85,0.56-2.94,1.37-3.52c0.08-0.06,0.39-0.48-0.13-0.47c-0.81-0.04-1.78-0.3-1.89-1.28
		c-0.01-0.21-1.02-0.16-0.97-0.44c0.24-1.36,3.23-2.34,5.29-0.98c1.74,1.15,3.93-2.78,2.36-4.62c-1.14-1.33-7.79,2.38-10.06-2.43
		c-0.91-1.94,0.23-3.59-0.69-3.73c-0.93-0.13-5.11-1.04-9.76,2.69c-7.85,6.31-16.36,2.87-18.36,1.47c-0.32-0.1-0.62,0.15-0.49,0.47
		c0.32,0.81,0.19,1.57-0.21,2.15c-0.82,1.24-3.64,2.5-4.14,2.64c-3.31,0.97-2.96,3.5-2.61,4.62c0.1,0.34-0.02,0.55-0.38,0.48
		c-1.01-0.19-3.05-0.81-3.85-2.79c-0.09-0.23-0.32-0.24-0.59-0.04c-1.23,0.88-0.8,2.15-0.5,2.71c0.11,0.23,0.05,0.44-0.24,0.47
		c-1.13,0.14-1.94-1.18-2.91-1.08c-0.63,0.06-1.38,0.55-1.78,0.83c-0.2,0.12-0.22,0.44-0.1,0.81c1.23,3.66-0.79,3.78-0.92,3.71
		c-0.14-0.08-0.06-0.69-0.65-0.78c-1.99,0.11-2.56-1.19-2.66-2.14c-0.04-0.31-0.16-0.42-0.37-0.27c-0.76,0.53-2.61,1.56-3.78,0.04
		c-0.16-0.22-0.72,0.01-1.02,0.14c-0.24,0.1-0.25-0.29-0.24-0.42c0.14-2.09,1.56-3.03,2.33-3.39c0.29-0.13,0.32-0.29,0.09-0.45
		c-0.63-0.47-1.74-1.47-1.38-2.57c0.07-0.21-0.93-0.6-0.68-0.78c2.29-1.65,5.22,1.09,5.59,1.39c0.39,0.31,2.47,0.38,7.77-2.6
		c3.37-1.89,5.13-3.46,6.09-4.65c0.12-0.14,0.36-0.39,0.71-0.4c2.14-0.07,4.25-0.39,5.9-1.84c0.27-0.28,0.55-0.11,0.67-0.03
		c3.03,2.11,4.59-2.56,5.22-4.69c0.08-0.43,0.17-0.79,0.63-0.81c11.16,0.54,32.31,0.46,32.31,0.46s2.79,0.22,2.64-1.51
		c-0.22-2.78-11.76-2.72-20.37-1.53c-3.13,0.43-7.67,0.68-10.35-0.36c-1.11-0.43-2.02-1.12-2.52-2.01
		c-0.54-1.13-0.39-1.81-0.29-2.53c0.13-0.52,0.39-1.07,0.75-1.65c2.21-3.41,7.32-3.67,8.9-3.67c0.3,0,0.49-0.13,0.54-0.35
		c0.16-0.79,0.76-2.61,2.9-2.72c0.6-0.04,1.21-0.26,1.59-0.44c0.25-0.11,0.41-0.05,0.37,0.18c-0.06,0.27-0.19,0.64-0.5,0.92
		c-1.5,1.29-1.28,1.88-1.1,2.05c0.1,0.08,0.24,0.04,0.35-0.07c4.55-3.96,7.2-1.34,8.01-0.48c0.13,0.15,0.17,0.39-0.09,0.45
		c-3.09,0.69-4.29,3.45-10.59,3c-0.77-0.05-5.93-0.31-7.58,2.03c-0.95,1.36-0.29,2.62,2.5,3.24c2.12,0.46,7.06-0.26,9.39-0.44
		c2.28-0.19,12.22-1.43,17.43,0.07c2.2,0.63,5.4,2.39,4.76,5.72c-0.42,2.1-2.44,2.93-2.44,2.93s-5.72,4.02,4.53,4.07
		c3.18,0.01,0.05,2.63-0.11,3.4C163.6,93.65,164.12,94.15,164.61,94.44 M146.44,95.8c-0.8,0.7-2.22,1.46-4.48,1.38
		c-0.95-0.04-1.41,0.23-1.65,0.52c-0.14,0.19-0.23,0.43-0.25,0.48c-0.13,0.47,0.04,0.97,0.29,1.37c0.24,0.34,0.15,0.57-0.22,0.66
		c-0.37,0.1-0.86,0.11-1.83-0.36c-0.43-0.2-0.55,0.06-0.6,0.26c-0.16,0.47,0.15,1.05,0.78,1.47c0.32,0.29,0.26,0.56-0.24,0.74
		c-0.85,0.3-1.62-0.09-2.87-0.79c-0.73-0.41-1.3-0.47-1.79,0.11c-0.28,0.32-0.26,0.63-0.09,0.79c0.49,0.48,0.78,1.45-0.43,2.97
		c-0.4,0.5-0.84-0.89-1.2-0.72c-1.66,0.77-3.02-0.24-3.53-0.94c-0.11-0.14-0.34-0.19-0.63,0c-0.83,0.56-2.6,1.47-3.29-0.12
		c-0.11-0.23-1.08,0.36-1.07-0.1c0.04-2.64,2.34-3.14,3.32-3.23c0.3-0.03,0.36-0.18,0.2-0.42c-0.39-0.57-0.86-1.25-0.6-2.05
		c0.18-0.59-1.33-0.72-0.71-1.02c3.03-1.51,4.73,1.38,5.25,1.69c0.88,0.5,4.84-0.78,5.32-2.92c0.1-0.42-0.92-0.61-1.94-0.86
		c-0.18-0.04-0.29-0.28,0.05-0.55c2.4-1.78,4.33-4.1,8.67-4.53c0.53-0.06,0.74,0.38,0.75,0.59c0.08,0.67,0.26,1.33,0.55,1.95
		c0.63,1.33,1.38,2.16,2.15,2.76C146.7,95.21,146.65,95.61,146.44,95.8 M89.73,90.53c-0.92,0-1.3,0.3-1.98,0.73
		c-0.42,0.3-0.55-0.53-0.05-2.23c0.4-1.33-2.21-2.05-2.83-1.43c-0.88,0.69-3.13,2.03-5.32-0.28c-0.44-0.46,1-0.31,1.09-0.71
		c0.13-0.6,0.67-0.96,0.9-1.2c0.13-0.18,0.13-0.46-0.1-0.56c-0.68-0.36-1.6-1.14-1.34-2.58c0.03-0.2-1.15-0.27-0.75-0.63
		c2.06-1.91,4.31-0.72,5.22-0.11c0.16,0.06,0.48,0.09,0.51-0.22c0.07-0.62-0.25-1.03,0.99-2.06c0.24-0.2-0.72-1.03-0.05-0.99
		c4.27,1.07,2.34,5.5,3.23,6.28c1.63,1.45,5.57,2.6,9.28,3.4c0.32,0.07,1.47,0.48,1.71,0.6c3,1.53,4.83,1.38,6.45,0.74
		c0.52-0.2,0.51,0.46,0.33,0.62c-5.95,5.67-10.47,4.23-12.07,3.2c-1.11-0.71-3.39-0.74-4.44,0.72c-0.18,0.18-0.5,0.29-0.63-0.18
		c-0.32-1.09,0.03-1.8,0.35-2.59C90.41,90.65,89.91,90.53,89.73,90.53 M101.71,73.12c-0.03,0.05-0.17,0.1-0.28,0.02
		c-0.3-0.25-0.5-0.63-0.5-1.06c0-0.74,0.6-1.35,1.35-1.35c0.36,0,0.69,0.14,0.94,0.38c0.1,0.07,0.04,0.25-0.01,0.3
		C102.62,71.88,102.11,72.47,101.71,73.12 M110.82,86.49c-0.32,0.85-1.53,0.57-2.17,1.1c-0.07,0.06-0.26,0.06-0.32,0.02
		c-0.64-0.54-1.84-0.28-2.22-1.21c-0.03-0.07-0.03-0.22,0.14-0.25c0.85-0.1,1.6-0.51,2.15-1.11c0.05-0.06,0.19-0.11,0.31,0.03
		c0.49,0.55,1.19,0.95,1.96,1.08C110.76,86.16,110.9,86.24,110.82,86.49 M113.88,71.25c-0.05-0.04-0.04-0.22,0.03-0.26
		c0.22-0.17,0.49-0.26,0.79-0.26c0.75,0,1.35,0.6,1.35,1.35c0,0.42-0.19,0.8-0.49,1.05c-0.08,0.07-0.23-0.01-0.26-0.08
		C114.91,72.35,114.43,71.73,113.88,71.25 M101.25,68.13c0.86-0.2-0.99-1.62,0.22-1.56c0.79,0.04,3.39,0.05,5.35,1.01
		c0.38,0.16,0.6-0.55,1.35-1.03c0.06-0.04,0.24-0.11,0.37,0c0.77,0.48,1.05,1.17,1.42,1.01c1.95-0.94,4.53-0.94,5.31-0.99
		c1.26-0.08-0.64,1.36,0.22,1.56c4.43,1.03,7.72,4.79,7.72,9.26c0,1.3-0.32,2.51-0.76,3.63c-0.24,0.61-0.88-1.12-1.11-0.11
		c-0.43,1.82-0.88,3.19-1.84,5.01c-0.92,1.71-2.44-1.87-2.91-0.86c-0.86,1.8-2.87,2.43-4.27,2.64c-0.16,0.02-0.31,0-0.12-0.19
		c0.07-0.07,0.41-0.38,0.5-1.02c0.01-0.07-0.03-0.17,0.12-0.24c1.06-0.5,1.86-1.49,2.09-2.67c0.34-1.1,0.78-2.67,1.32-3.64
		c1.2-2.14-0.26-4.73,0.11-5.3c0.82-0.54,1.37-1.47,1.37-2.53c0-1.67-1.36-3.03-3.03-3.03c-0.91,0-1.72,0.4-2.26,1.02l-0.09,0.08
		c-0.28,0.29-0.55,0.6-0.79,0.92c-0.27,0.35-0.21,0.99,0.26,1.12c2.06,0.54,3.42,5.19,2.57,6.69c-0.38,0.67-1.52,3.17-1.52,3.9
		c0,0.94-0.75,1.7-1.69,1.7c-0.72,0-1.32-0.44-1.58-1.1c0,0,0.03-0.06,0.03-0.07c0.57-0.36,1.83-1.11,1.83-1.9l-0.25-2.54
		c1.03-0.12,1.5-0.68,1.63-1.66c0.09-0.06,0.18-0.13,0.26-0.2c0.34-0.31,0.57-1.16-0.16-1.04c-1.05,0.2-2.24,0.16-3.38,0.48
		c-0.16,0.04-0.27,0.18-0.29,0.33c-0.05,0.22,0.62,3.3,0.77,3.98c0.01,0.08-0.04,0.12-0.08,0.12c-0.46-0.04-1.3-0.08-1.51-0.08
		c-0.2,0-1.01,0.05-1.5,0.09c-0.05,0-0.12-0.06-0.1-0.12c0.16-0.73,0.83-3.79,0.83-3.79c0.02-0.12,0-0.26-0.07-0.37
		c-0.22-0.29-3.22-0.55-3.63-0.62c-0.17-0.03-0.34,0.03-0.45,0.18c-0.3,0.42,0.22,0.89,0.56,1.09c0.13,0.94,0.62,1.49,1.62,1.62
		c0.01,0.01,0.03,0.04,0.04,0.05c-0.03,0.17-0.29,2.53-0.29,2.54c0,0.81,1.24,1.5,1.86,1.86c0.03,0.04,0.08,0.1,0.09,0.15
		c-0.3,0.59-0.88,1.01-1.56,1.01c-0.94,0-1.69-0.76-1.69-1.7c0-0.6-1.12-3.22-1.54-3.93c-0.9-1.55,0.44-6.13,2.58-6.67
		c0.46-0.11,0.7-0.79,0.34-1.14c-0.9-0.89-1.93-2-3.29-2c-1.67,0-3.02,1.36-3.02,3.03c0,1.92,1.47,2.22,1.37,2.75
		c-0.59,1.78-0.6,3.72,0.2,5.08c0.55,0.95,0.97,2.46,1.31,3.54c0.2,1.11,0.88,2.06,1.83,2.61c0.47,0.27,0.24,0.64,0.44,1.04
		c0.09,0.19,0.24,0.32,0.36,0.42c0.2,0.15,0.05,0.19-0.12,0.17c-1.41-0.18-3.59-0.77-4.49-2.67c-0.47-1.01-2.01,2.57-2.92,0.86
		c-0.97-1.82-1.41-3.19-1.84-5.01c-0.24-1.01-0.87,0.72-1.11,0.11c-0.44-1.13-0.76-2.34-0.76-3.63
		C93.53,72.92,96.82,69.16,101.25,68.13 M160.62,63.14c-10.96-2.31-25.42-4.61-39.33-4.61c-20.88-0.01-42.96,5.19-52.65,7.78
		c-1.93,0.52-3.37,0.93-4.21,1.18V115c6.28-1.01,32.25-4.96,56.86-4.96c24.62,0,50.58,3.94,56.87,4.96V67.49
		c-0.85-0.25-2.28-0.66-4.22-1.18C170.71,65.45,166.1,64.29,160.62,63.14 M138.73,138.38v17.65c-3.48,0-12.66-0.01-12.84-0.01
		c-1.39,0-2.63,0.62-3.46,1.6v-14.79c0-2.5,1.96-4.45,4.49-4.45c0.22,0,0.47-0.03,0.69,0H138.73z M140.05,154.18h2.5v1.83h-2.5
		V154.18z M140.05,149.29h2.5v1.84h-2.5V149.29z M140.05,144.4h2.5v1.83h-2.5V144.4z M140.05,139.5h2.5v1.84h-2.5V139.5z
		 M149.16,140.83l5.76,2.73l2.04-5.95l2.14,5.98l5.66-2.76l-2.73,5.75l5.96,2.05l-6,2.13l2.77,5.66l-5.76-2.72l-2.04,5.96
		l-2.14-5.99l-5.66,2.76l2.74-5.75l-5.96-2.04l5.99-2.14L149.16,140.83z M129.1,179.04l-5.75-2.73l-2.05,5.97l-2.14-6.01l-5.66,2.77
		l2.73-5.75l-5.96-2.05l5.99-2.14l-2.76-5.65l5.75,2.72l2.06-5.95l2.14,5.99l5.65-2.76l-2.72,5.75l5.96,2.05l-5.99,2.14
		L129.1,179.04z M103.87,156.02v-17.65h11.12c0.21-0.03,0.46,0,0.68,0c2.54,0,4.5,1.95,4.5,4.45v14.79c-0.83-0.98-2.07-1.6-3.46-1.6
		C116.52,156.01,107.35,156.02,103.87,156.02 M102.54,141.34h-2.5v-1.84h2.5V141.34z M102.54,146.23h-2.5v-1.83h2.5V146.23z
		 M102.54,151.12h-2.5v-1.84h2.5V151.12z M102.54,156.01h-2.5v-1.83h2.5V156.01z M93.43,156.43l-5.67-2.76l-2.14,5.99l-2.04-5.96
		l-5.76,2.72l2.78-5.66l-6-2.13l5.96-2.05l-2.74-5.75l5.67,2.76l2.14-5.98l2.05,5.95l5.75-2.73l-2.76,5.67l5.99,2.14l-5.96,2.04
		L93.43,156.43z M113.51,119.78l5.74,2.72l2.05-5.96l2.13,5.99l5.66-2.76l-2.73,5.74l5.96,2.05l-5.99,2.14l2.76,5.66l-5.74-2.72
		l-2.05,5.95l-2.14-5.99l-5.66,2.76l2.72-5.75l-5.96-2.04l6-2.14L113.51,119.78z M134.79,112.86c-4.46-0.23-9-0.36-13.5-0.36
		c-4.48,0-9.02,0.13-13.47,0.36v22.2H65.33c1.77,10.65,6.11,20.62,12.35,28.92c0.84-1.18,2.22-1.95,3.78-1.95h26.36v23.08
		c4.31,1.18,8.81,1.84,13.47,1.84v0.19h0.02v-0.19c4.66,0,9.17-0.65,13.49-1.84v-23.07h26.37c1.55,0,2.92,0.76,3.77,1.94
		c6.23-8.29,10.56-18.27,12.33-28.91h-42.46V112.86z M117.34,142.03h-10.99v1.66h10.99V142.03z M117.34,151.13h-10.99v1.66h10.99
		V151.13z M117.34,146.58h-10.99v1.66h10.99V146.58z M125.25,143.69h10.99v-1.66h-10.99V143.69z M125.25,152.79h10.99v-1.66h-10.99
		V152.79z M125.25,148.24h10.99v-1.66h-10.99V148.24z"/>
	<rect x="218.73" y="185.36" width="26.62" height="2.91"/>
</g>
<g>
	<path d="M227.88,217.19c-0.93-1.79-1.93-2.55-3.35-2.55c-1.31,0-2.31,0.93-2.31,2.21c0,4.21,10.32,3.66,10.32,10.83
		c0,4.73-3.1,7.52-7.73,7.52c-4.38,0-7.56-3.07-8.31-6.76l3.62-2.28c0.72,2.59,2.17,4.9,4.8,4.9c1.86,0,3.14-0.93,3.14-3.14
		c0-4-10.11-3.21-10.11-10.87c0-3.66,2.79-6.55,6.59-6.55c3.21,0,5.66,1.59,6.97,4.38L227.88,217.19z"/>
	<path d="M237.41,217.54l4.04,10.9l3.79-10.9h4.28l-8.97,24.43h-4.14l3-8.14l-6.31-16.28H237.41z"/>
	<path d="M258.41,217.26c1.76,0,3.45,0.9,4.21,1.86v-8.62h4.28v24.43h-4.28v-1.79c-0.48,0.9-2.07,2.07-4.21,2.07
		c-5.24,0-7.94-3.62-7.94-8.97S253.16,217.26,258.41,217.26z M258.99,231.55c2.24,0,4-1.86,4-5.31c0-3.45-1.76-5.31-4-5.31
		c-2.24,0-4.04,1.86-4.04,5.31C254.96,229.68,256.75,231.55,258.99,231.55z"/>
	<path d="M276.06,217.54v2.79c1.28-1.83,3.14-3.07,5.38-3.07c3.11,0,5.35,1.76,5.35,5.24v12.42h-4.28v-11.14
		c0-2.07-1.04-2.86-2.48-2.86c-2.07,0-3.97,2.48-3.97,7.07v6.93h-4.28v-17.39H276.06z"/>
	<path d="M306.88,227.61h-11.97c0.1,1.93,1.45,3.93,4.11,3.93c1.97,0,3.17-0.9,4.21-2.69l3.45,1.28c-1.35,3.07-3.69,5.07-7.9,5.07
		c-5.97,0-8.35-4.87-8.35-8.97s2.38-8.97,8.35-8.97c5.8,0,8.11,4.8,8.11,8.59V227.61z M295.01,224.23h7.49
		c-0.38-1.72-1.45-3.31-3.73-3.31C296.6,220.92,295.32,222.58,295.01,224.23z"/>
	<path d="M311.97,217.54l4.04,10.9l3.79-10.9h4.28l-8.97,24.43h-4.14l3-8.14l-6.31-16.28H311.97z"/>
	<path d="M222.88,269.43h-4.48v-24.15h4.48V269.43z"/>
	<path d="M232.42,252.04v2.79c1.28-1.83,3.14-3.07,5.38-3.07c3.1,0,5.35,1.76,5.35,5.24v12.42h-4.28v-11.14
		c0-2.07-1.04-2.86-2.48-2.86c-2.07,0-3.97,2.48-3.97,7.07v6.93h-4.28v-17.39H232.42z"/>
	<path d="M246.17,252.04h2.21v-0.9c0-4.24,2.42-6.14,6-6.14c1.35,0,2.48,0.28,3.24,0.69l-0.93,3.45c-0.72-0.31-1.35-0.48-2.07-0.48
		c-1.21,0-1.97,0.62-1.97,2.17v1.21h3.66v3.66h-3.66v13.73h-4.28V255.7h-2.21V252.04z"/>
	<path d="M267.26,251.76c5.59,0,8.83,3.93,8.83,8.97c0,5.04-3.24,8.97-8.83,8.97c-5.59,0-8.83-3.93-8.83-8.97
		C258.43,255.7,261.67,251.76,267.26,251.76z M267.26,266.05c2.76,0,4.35-2.45,4.35-5.31c0-2.86-1.59-5.31-4.35-5.31
		c-2.76,0-4.35,2.45-4.35,5.31C262.91,263.6,264.5,266.05,267.26,266.05z"/>
	<path d="M279.91,269.43v-17.39h4.28v2.83c1.24-2.04,3.17-3.11,5.14-3.11c0.76,0,1.41,0.14,2.1,0.34l-0.79,3.97
		c-0.52-0.31-1.07-0.48-1.79-0.48c-2.48,0-4.66,2.04-4.66,7.66v6.18H279.91z"/>
	<path d="M304.35,269.43v-11.59c0-1.76-0.86-2.42-2.14-2.42c-2.1,0-3.76,2.45-3.76,7.62v6.38h-4.28v-17.39h4.28v2.79
		c1.28-1.93,2.76-3.07,5-3.07c2.14,0,4.11,1.07,4.86,3.59c1.24-2.24,3.17-3.59,5.31-3.59c3.24,0,5.18,2,5.18,5.35v12.32h-4.28
		v-11.59c0-1.76-0.86-2.42-2.14-2.42c-2.07,0-3.76,2.35-3.76,7.25v6.76H304.35z"/>
	<path d="M323.05,256.59c0.55-2.86,3.07-4.83,6.62-4.83c4.14,0,7.31,1.72,7.31,7.28v10.38h-3.52l-0.45-2.21
		c-1.21,1.48-2.86,2.48-5.35,2.48c-2.97,0-5.28-1.83-5.28-5.28c0-3.45,3.04-5.69,7.42-5.69h2.9v-0.76c0-1.93-1.45-2.55-3.04-2.55
		c-1.21,0-2.45,0.38-3,2L323.05,256.59z M328.67,266.05c1.97,0,4.04-1.35,4.04-3.59v-0.35h-2.86c-1.83,0-2.97,0.69-2.97,2.24
		C326.87,265.19,327.46,266.05,328.67,266.05z"/>
	<path d="M351.14,269.08c-0.97,0.45-1.9,0.62-2.83,0.62c-3.93,0-6.38-2.1-6.38-6.42v-7.59h-2.69v-3.66h2.69v-4.35l4.28-2.69v7.04
		h4.59v3.66h-4.59v7.52c0,2.14,0.83,2.83,2.28,2.83c0.59,0,1.07-0.1,1.66-0.41L351.14,269.08z"/>
	<path d="M356.16,244.28c1.59,0,2.76,1.21,2.76,2.76s-1.17,2.76-2.76,2.76c-1.59,0-2.76-1.21-2.76-2.76S354.58,244.28,356.16,244.28
		z M358.3,252.04v17.39h-4.28v-17.39H358.3z"/>
	<path d="M378.19,264.74c-1.31,3.28-4.04,4.97-7.9,4.97c-5.66,0-8.49-4.07-8.49-8.97c0-4.9,2.83-8.97,8.49-8.97
		c3.86,0,6.59,1.69,7.9,4.97l-3.83,1.55c-0.9-1.83-2.14-2.86-4.07-2.86c-2.69,0-4,2.24-4,5.31c0,3.07,1.31,5.31,4,5.31
		c1.93,0,3.17-1.04,4.07-2.86L378.19,264.74z"/>
	<path d="M392.81,254.59l-2.55,2.35c-0.79-1.04-1.93-1.52-2.9-1.52c-0.83,0-1.59,0.48-1.59,1.45c0,0.76,0.62,1.31,1.66,1.69
		c2.38,0.86,6.28,1.62,6.28,5.35c0,3.14-2.42,5.8-6.18,5.8c-3.62,0-6.04-2.55-6.9-4.69l3.42-1.83c0.62,1.69,1.79,2.86,3.48,2.86
		c1.31,0,2.14-0.59,2.14-1.86c0-1.45-2.24-1.76-4.35-2.66c-1.9-0.79-3.52-2-3.52-4.69c0-2.69,2.17-5.07,5.55-5.07
		C389.7,251.76,391.74,252.9,392.81,254.59z"/>
	<path d="M406.78,245.28h4.48v9.18h9.66v-9.18h4.49v24.15h-4.49V258.6h-9.66v10.83h-4.48V245.28z"/>
	<path d="M441.32,269.43v-2.79c-1.28,1.83-3.14,3.07-5.38,3.07c-3.1,0-5.35-1.76-5.35-5.24v-12.42h4.28v11.14
		c0,2.07,1.04,2.86,2.48,2.86c2.07,0,3.97-2.48,3.97-7.07v-6.93h4.28v17.39H441.32z"/>
	<path d="M458.97,269.7c-2.14,0-3.73-1.17-4.21-2.07v1.79h-4.28V245h4.28v8.62c0.76-0.97,2.45-1.86,4.21-1.86
		c5.24,0,7.93,3.62,7.93,8.97C466.91,266.08,464.22,269.7,458.97,269.7z M458.39,255.42c-2.24,0-4,1.86-4,5.31
		c0,3.45,1.76,5.31,4,5.31c2.24,0,4.04-1.86,4.04-5.31C462.42,257.28,460.63,255.42,458.39,255.42z"/>
</g>
</svg>
